# xmcd
#
# Track frame offsets:
# 150
# 21125
# 41658
# 60752
# 75302
# 93658
# 109399
# 124961
# 143354
#
# Disc length: 2116 seconds
#
# Revision: 0
# Processed by: cddbd v1.5.2PL0 Copyright (c) Steve Scherf et al.
# Submitted via: Axialis_AX_CDPlayer 2.6
#
DISCID=6a084209
DTITLE=Carter and Carter - Special Edition
DYEAR=1900
DGENRE=
TTITLE0=Surviving Black Saturday
TTITLE1=Trust Me
TTITLE2=Lead Me Home 
TTITLE3=Leap Before You Look
TTITLE4=Candlelight and Kiss
TTITLE5=One Of Those Days
TTITLE6=The Best Thing In Life Are Free
TTITLE7=Slow Dance At Midnight
TTITLE8=Why Me Lord
EXTD=
EXTT0=
EXTT1=
EXTT2=
EXTT3=
EXTT4=
EXTT5=
EXTT6=
EXTT7=
EXTT8=
PLAYORDER=
